<mxfile host="app.diagrams.net" modified="2022-12-25T21:28:57.668Z" agent="5.0 (Windows NT 10.0; Win64; x64) AppleWebKit/537.36 (KHTML, like Gecko) Chrome/108.0.0.0 Safari/537.36" version="20.7.4" etag="MW_3TaPiDCoMZaXmzXm6" type="github">
  <diagram id="1xA5LPR8mwkwgo2Y8c2O" name="Page-1">
    <mxGraphModel dx="472" dy="774" grid="1" gridSize="10" guides="1" tooltips="1" connect="1" arrows="1" fold="1" page="1" pageScale="1" pageWidth="827" pageHeight="1169" math="0" shadow="0">
      <root>
        <mxCell id="0" />
        <mxCell id="1" parent="0" />
        <mxCell id="M79SLZaRH5CEyo_88zUK-3" style="edgeStyle=orthogonalEdgeStyle;rounded=0;orthogonalLoop=1;jettySize=auto;html=1;entryX=0.5;entryY=0;entryDx=0;entryDy=0;" edge="1" parent="1" source="M79SLZaRH5CEyo_88zUK-1" target="M79SLZaRH5CEyo_88zUK-2">
          <mxGeometry relative="1" as="geometry" />
        </mxCell>
        <mxCell id="M79SLZaRH5CEyo_88zUK-1" value="Start" style="rounded=1;whiteSpace=wrap;html=1;" vertex="1" parent="1">
          <mxGeometry x="190" y="210" width="120" height="60" as="geometry" />
        </mxCell>
        <mxCell id="M79SLZaRH5CEyo_88zUK-5" value="Yes" style="edgeStyle=orthogonalEdgeStyle;rounded=0;orthogonalLoop=1;jettySize=auto;html=1;entryX=0;entryY=0.5;entryDx=0;entryDy=0;" edge="1" parent="1" source="M79SLZaRH5CEyo_88zUK-2" target="M79SLZaRH5CEyo_88zUK-4">
          <mxGeometry relative="1" as="geometry" />
        </mxCell>
        <mxCell id="M79SLZaRH5CEyo_88zUK-7" value="No" style="edgeStyle=orthogonalEdgeStyle;rounded=0;orthogonalLoop=1;jettySize=auto;html=1;exitX=0.5;exitY=1;exitDx=0;exitDy=0;entryX=0.5;entryY=0;entryDx=0;entryDy=0;" edge="1" parent="1" source="M79SLZaRH5CEyo_88zUK-2" target="M79SLZaRH5CEyo_88zUK-9">
          <mxGeometry relative="1" as="geometry">
            <mxPoint x="250" y="505" as="targetPoint" />
          </mxGeometry>
        </mxCell>
        <mxCell id="M79SLZaRH5CEyo_88zUK-2" value="is n 1?" style="rhombus;whiteSpace=wrap;html=1;" vertex="1" parent="1">
          <mxGeometry x="210" y="360" width="80" height="80" as="geometry" />
        </mxCell>
        <mxCell id="M79SLZaRH5CEyo_88zUK-4" value="Output [0]" style="rounded=1;whiteSpace=wrap;html=1;" vertex="1" parent="1">
          <mxGeometry x="330" y="370" width="120" height="60" as="geometry" />
        </mxCell>
        <mxCell id="M79SLZaRH5CEyo_88zUK-8" value="Yes" style="edgeStyle=orthogonalEdgeStyle;rounded=0;orthogonalLoop=1;jettySize=auto;html=1;entryX=0;entryY=0.5;entryDx=0;entryDy=0;" edge="1" parent="1" source="M79SLZaRH5CEyo_88zUK-9" target="M79SLZaRH5CEyo_88zUK-10">
          <mxGeometry relative="1" as="geometry" />
        </mxCell>
        <mxCell id="M79SLZaRH5CEyo_88zUK-12" style="edgeStyle=orthogonalEdgeStyle;rounded=0;orthogonalLoop=1;jettySize=auto;html=1;" edge="1" parent="1" source="M79SLZaRH5CEyo_88zUK-9" target="M79SLZaRH5CEyo_88zUK-11">
          <mxGeometry relative="1" as="geometry" />
        </mxCell>
        <mxCell id="M79SLZaRH5CEyo_88zUK-13" value="No" style="edgeStyle=orthogonalEdgeStyle;rounded=0;orthogonalLoop=1;jettySize=auto;html=1;" edge="1" parent="1" source="M79SLZaRH5CEyo_88zUK-9" target="M79SLZaRH5CEyo_88zUK-11">
          <mxGeometry relative="1" as="geometry" />
        </mxCell>
        <mxCell id="M79SLZaRH5CEyo_88zUK-9" value="is n 2?" style="rhombus;whiteSpace=wrap;html=1;" vertex="1" parent="1">
          <mxGeometry x="210" y="515" width="80" height="80" as="geometry" />
        </mxCell>
        <mxCell id="M79SLZaRH5CEyo_88zUK-10" value="Output [0,1]" style="rounded=1;whiteSpace=wrap;html=1;" vertex="1" parent="1">
          <mxGeometry x="330" y="525" width="120" height="60" as="geometry" />
        </mxCell>
        <mxCell id="M79SLZaRH5CEyo_88zUK-16" value="" style="edgeStyle=orthogonalEdgeStyle;rounded=0;orthogonalLoop=1;jettySize=auto;html=1;" edge="1" parent="1" source="M79SLZaRH5CEyo_88zUK-11" target="M79SLZaRH5CEyo_88zUK-15">
          <mxGeometry relative="1" as="geometry" />
        </mxCell>
        <mxCell id="M79SLZaRH5CEyo_88zUK-11" value="Sum Last two values" style="rhombus;whiteSpace=wrap;html=1;" vertex="1" parent="1">
          <mxGeometry x="210" y="640" width="80" height="80" as="geometry" />
        </mxCell>
        <mxCell id="M79SLZaRH5CEyo_88zUK-17" value="No" style="edgeStyle=orthogonalEdgeStyle;rounded=0;orthogonalLoop=1;jettySize=auto;html=1;entryX=0;entryY=0.5;entryDx=0;entryDy=0;" edge="1" parent="1" source="M79SLZaRH5CEyo_88zUK-15" target="M79SLZaRH5CEyo_88zUK-11">
          <mxGeometry relative="1" as="geometry">
            <mxPoint x="250" y="990" as="targetPoint" />
            <Array as="points">
              <mxPoint x="250" y="930" />
              <mxPoint x="190" y="930" />
              <mxPoint x="190" y="680" />
            </Array>
          </mxGeometry>
        </mxCell>
        <mxCell id="M79SLZaRH5CEyo_88zUK-19" value="Yes" style="edgeStyle=orthogonalEdgeStyle;rounded=0;orthogonalLoop=1;jettySize=auto;html=1;" edge="1" parent="1" source="M79SLZaRH5CEyo_88zUK-15" target="M79SLZaRH5CEyo_88zUK-18">
          <mxGeometry relative="1" as="geometry" />
        </mxCell>
        <mxCell id="M79SLZaRH5CEyo_88zUK-15" value="Does N equals number of items in outpout?" style="rhombus;whiteSpace=wrap;html=1;" vertex="1" parent="1">
          <mxGeometry x="210" y="800" width="80" height="80" as="geometry" />
        </mxCell>
        <mxCell id="M79SLZaRH5CEyo_88zUK-18" value="Output" style="rounded=1;whiteSpace=wrap;html=1;" vertex="1" parent="1">
          <mxGeometry x="350" y="810" width="120" height="60" as="geometry" />
        </mxCell>
      </root>
    </mxGraphModel>
  </diagram>
</mxfile>
